<svg width="30" height="30" viewBox="0 0 30 30" fill="none" xmlns="http://www.w3.org/2000/svg">
<g clip-path="url(#clip0_2940_8086)">
<path d="M0 6.67969C0 2.9906 2.9906 0 6.67969 0H23.3203C27.0094 0 30 2.9906 30 6.67969V23.3203C30 27.0094 27.0094 30 23.3203 30H6.67969C2.9906 30 0 27.0094 0 23.3203V6.67969Z" fill="#FF6800"/>
<path d="M0 6.67969C0 2.9906 2.9906 0 6.67969 0H23.3203C27.0094 0 30 2.9906 30 6.67969V23.3203C30 27.0094 27.0094 30 23.3203 30H6.67969C2.9906 30 0 27.0094 0 23.3203V6.67969Z" fill="url(#paint0_radial_2940_8086)" fill-opacity="0.7"/>
<path d="M16.1077 11.6767C16.9588 11.6767 17.6487 12.3646 17.6487 13.2132C17.6487 14.0618 16.9588 14.7497 16.1077 14.7497C15.2567 14.7497 14.5667 14.0618 14.5667 13.2132C14.5667 12.3646 15.2567 11.6767 16.1077 11.6767Z" fill="white"/>
<path fill-rule="evenodd" clip-rule="evenodd" d="M15.7098 6.20996C19.4506 6.20996 22.648 8.52942 23.9344 11.8046C23.9807 11.9223 24.0935 12.0018 24.2203 12.0018H26.8336C26.9492 12.0018 27.0429 12.0952 27.0429 12.2104C27.0429 12.425 27.0197 12.5258 26.9757 12.7272C26.9731 12.739 26.9705 12.7509 26.9677 12.7627C26.965 12.7745 26.9622 12.7862 26.9593 12.798C26.9536 12.8214 26.9476 12.8448 26.9412 12.8681C26.9349 12.8913 26.9284 12.9145 26.9215 12.9375C26.9043 12.995 26.8854 13.0518 26.8648 13.1078C26.8607 13.119 26.8566 13.1302 26.8523 13.1413C26.7971 13.2861 26.7307 13.4254 26.6541 13.5581C26.6483 13.5683 26.6423 13.5785 26.6363 13.5886C26.6183 13.619 26.5998 13.649 26.5807 13.6787C26.5616 13.7084 26.542 13.7377 26.5219 13.7666C26.5003 13.7976 26.4781 13.8281 26.4554 13.8582C26.4319 13.8895 26.4077 13.9202 26.3829 13.9505C26.3741 13.9612 26.3653 13.9718 26.3564 13.9824C26.3242 14.0207 26.291 14.0582 26.2569 14.0947C26.2249 14.129 26.1921 14.1625 26.1585 14.1951C26.1294 14.2235 26.0996 14.2513 26.0693 14.2784C26.0337 14.3103 25.9973 14.3413 25.9602 14.3715C25.9159 14.4075 25.8705 14.4422 25.824 14.4756C25.685 14.5756 25.5368 14.6639 25.381 14.7388C25.3703 14.7439 25.3596 14.749 25.3488 14.754C25.2764 14.7877 25.2024 14.8185 25.1269 14.8463C25.0652 14.8691 25.0026 14.8898 24.9391 14.9085C24.8955 14.9213 24.8515 14.9332 24.807 14.944C24.7599 14.9554 24.7124 14.9658 24.6644 14.9749C24.6231 14.9828 24.5813 14.9898 24.5394 14.996C24.4818 15.0044 24.1958 15.0137 24.1078 15.0137H21.1783L21.1784 15.0145H21.6319C21.2296 15.033 21.1747 15.3776 21.1556 15.5534L21.1555 15.5522C20.8764 20.1635 17.0373 23.8174 12.3422 23.8174C7.56694 23.8174 3.67701 20.0377 3.51765 15.3151C3.51205 15.149 3.64764 15.0137 3.81424 15.0137H6.40724C6.69898 14.9919 6.85338 14.8742 6.8976 14.4326V14.4572C7.18557 9.8543 11.0208 6.20998 15.7098 6.20996ZM15.7098 9.57932C12.8009 9.57934 10.4243 11.8514 10.2677 14.7128C10.2586 14.8787 10.1244 15.0137 9.95786 15.0137H7.20923C6.96876 15.0311 6.91167 15.2161 6.90191 15.3466C7.07445 18.1929 9.44419 20.448 12.3422 20.448C15.2511 20.448 17.6277 18.1759 17.7843 15.3145C17.7934 15.1486 17.9276 15.0137 18.0942 15.0137H20.7688C21.0668 14.9585 21.1412 14.7026 21.1394 14.5358C20.8967 11.7583 18.5585 9.57933 15.7098 9.57932Z" fill="white"/>
</g>
<defs>
<radialGradient id="paint0_radial_2940_8086" cx="0" cy="0" r="1" gradientUnits="userSpaceOnUse" gradientTransform="translate(25.166 0.55664) rotate(127.312) scale(22.7643)">
<stop stop-color="#FFC30E"/>
<stop offset="1" stop-color="#FFA70E" stop-opacity="0"/>
</radialGradient>
<clipPath id="clip0_2940_8086">
<rect width="30" height="30" fill="white"/>
</clipPath>
</defs>
</svg>
